<svg xmlns="http://www.w3.org/2000/svg" viewBox="0 0 1600 900" preserveAspectRatio="xMidYMid slice">
  <defs>
    <radialGradient id="glow" cx="50%" cy="45%" r="55%">
      <stop offset="0%" stop-color="#0d8f82" stop-opacity="0.18"/>
      <stop offset="55%" stop-color="#12181f" stop-opacity="0"/>
      <stop offset="100%" stop-color="#12181f" stop-opacity="0"/>
    </radialGradient>
    <linearGradient id="fade" x1="0" y1="0" x2="0" y2="1">
      <stop offset="0%" stop-color="#12181f" stop-opacity="0.2"/>
      <stop offset="100%" stop-color="#12181f" stop-opacity="0.85"/>
    </linearGradient>
  </defs>
  <rect width="1600" height="900" fill="#12181f"/>
  <rect width="1600" height="900" fill="url(#glow)"/>
  <g stroke="#0d8f82" stroke-opacity="0.28" fill="none" stroke-width="1">
    <path d="M0 180 H1600 M0 360 H1600 M0 540 H1600 M0 720 H1600"/>
    <path d="M160 0 V900 M400 0 V900 M640 0 V900 M880 0 V900 M1120 0 V900 M1360 0 V900"/>
  </g>
  <g stroke="#e9ece8" stroke-opacity="0.08" fill="none" stroke-width="1">
    <path d="M200 200 L500 200 L500 450 L800 450 L800 700 L1100 700"/>
    <path d="M400 720 L700 720 L700 360 L1000 360 L1000 180"/>
  </g>
  <circle cx="500" cy="200" r="5" fill="#9a7424"/>
  <circle cx="800" cy="450" r="6" fill="#0d8f82"/>
  <circle cx="1100" cy="700" r="4" fill="#e9ece8" fill-opacity="0.55"/>
  <circle cx="700" cy="720" r="3.5" fill="#0d8f82" fill-opacity="0.7"/>
  <circle cx="1000" cy="360" r="3.5" fill="#9a7424" fill-opacity="0.8"/>
  <rect width="1600" height="900" fill="url(#fade)"/>
</svg>
